<svg preserveAspectRatio="none" width="100%" height="100%" overflow="visible" style="display: block;" viewBox="0 0 123 16" fill="none" xmlns="http://www.w3.org/2000/svg">
<g id="&#208;&#144;&#208;&#187;&#209;&#140;&#209;&#132;&#208;&#176;-&#208;&#145;&#208;&#184;&#208;&#183;&#208;&#189;&#208;&#181;&#209;&#129;">
<path d="M9.5649 12.4878L8.59652 10.0106H3.26192L2.29354 12.4878H0L4.82492 0.390244H7.15244L11.9774 12.4878H9.5649ZM4.04342 8.04242H7.81502L5.92922 3.25769L4.04342 8.04242Z" fill="var(--fill-0, #030306)" fill-opacity="0.88"/>
<path d="M14.2567 8.58537L14.6644 3.90244H21.1033V12.4878H18.9457V5.75186H16.4653L16.2105 8.80594C16.0972 10.1407 15.8254 11.1022 15.395 11.6904C14.9646 12.2785 14.251 12.5726 13.2543 12.5726H12.6767V10.6045H12.8806C13.3789 10.6045 13.713 10.4687 13.8829 10.1972C14.0642 9.92577 14.1887 9.38848 14.2567 8.58537Z" fill="var(--fill-0, #030306)" fill-opacity="0.88"/>
<path d="M25.8055 6.56628H27.7423C28.9088 6.56628 29.7696 6.83775 30.3246 7.3807C30.8909 7.91234 31.1741 8.6193 31.1741 9.50159C31.1741 10.3499 30.8909 11.0626 30.3246 11.6394C29.7583 12.205 28.9032 12.4878 27.7592 12.4878H23.6479V3.90244H25.8055V6.56628ZM27.4364 8.33086H25.8055V10.7402H27.4364C28.4558 10.7402 28.9655 10.3273 28.9655 9.50159C28.9655 9.12831 28.8352 8.83987 28.5747 8.63627C28.3142 8.43266 27.9348 8.33086 27.4364 8.33086Z" fill="var(--fill-0, #030306)" fill-opacity="0.88"/>
<path d="M35.2493 6.41357C34.8303 6.86603 34.6207 7.45988 34.6207 8.19512C34.6207 8.93036 34.8303 9.52987 35.2493 9.99364C35.6684 10.4461 36.246 10.7119 36.9822 10.7911V5.59915C36.246 5.67833 35.6684 5.94981 35.2493 6.41357ZM40.8897 9.99364C41.3088 9.52987 41.5183 8.93036 41.5183 8.19512C41.5183 7.45988 41.3088 6.86603 40.8897 6.41357C40.4707 5.94981 39.8931 5.67833 39.1569 5.59915V10.7911C39.8931 10.7119 40.4707 10.4461 40.8897 9.99364ZM39.1569 16H36.9822V12.6914C35.6684 12.5896 34.5811 12.1428 33.7203 11.351C32.8595 10.5479 32.4291 9.49594 32.4291 8.19512C32.4291 6.90562 32.8539 5.85932 33.7033 5.0562C34.5641 4.24178 35.6571 3.78932 36.9822 3.69883V0H39.1569V3.69883C40.4594 3.75539 41.541 4.19088 42.4018 5.0053C43.2739 5.81972 43.7099 6.883 43.7099 8.19512C43.7099 9.49594 43.2852 10.5536 42.4358 11.368C41.5863 12.1824 40.4933 12.6235 39.1569 12.6914V16Z" fill="var(--fill-0, #030306)" fill-opacity="0.88"/>
<path d="M53.647 12.5387H52.9675C51.9481 12.5387 51.3195 12.1541 51.0817 11.3849C50.5154 12.2446 49.6602 12.6744 48.5163 12.6744C47.5309 12.6744 46.7268 12.4086 46.1038 11.877C45.4922 11.3454 45.1864 10.644 45.1864 9.77307C45.1864 8.92471 45.4696 8.2743 46.0359 7.82185C46.6022 7.36939 47.395 7.14316 48.4144 7.14316H50.9627V7.10923C50.9627 6.60021 50.7985 6.193 50.47 5.88759C50.1529 5.57087 49.7225 5.41251 49.1789 5.41251C48.3974 5.41251 47.865 5.70095 47.5819 6.27784H45.4243C45.4469 6.06292 45.5262 5.82538 45.6621 5.56522C45.798 5.30506 45.9962 5.02793 46.2567 4.73383C46.5172 4.42842 46.9023 4.17957 47.412 3.98728C47.9217 3.78367 48.4993 3.68187 49.1449 3.68187C50.4021 3.68187 51.3648 3.99859 52.0331 4.63203C52.7126 5.25415 53.0524 6.09685 53.0524 7.16013V10.0106C53.0524 10.4744 53.2506 10.7345 53.647 10.7911V12.5387ZM47.7858 10.7063C48.0802 10.9438 48.4936 11.0626 49.026 11.0626C49.5583 11.0626 50.0113 10.9212 50.3851 10.6384C50.7702 10.3443 50.9627 9.97667 50.9627 9.53553V8.63627H48.7541C48.3237 8.63627 47.9783 8.73242 47.7178 8.92471C47.4686 9.117 47.344 9.38848 47.344 9.73913C47.344 10.1463 47.4913 10.4687 47.7858 10.7063Z" fill="var(--fill-0, #030306)" fill-opacity="0.88"/>
<path d="M55.469 8.43266V6.43054H61.1264V8.43266H55.469Z" fill="var(--fill-0, #030306)" fill-opacity="0.88"/>
<path d="M66.2307 5.15801H69.2887C70.6932 5.15801 71.7748 5.48038 72.5337 6.12513C73.2925 6.76988 73.6719 7.66349 73.6719 8.80594C73.6719 10.0049 73.2925 10.9212 72.5337 11.5546C71.7861 12.1767 70.7045 12.4878 69.2887 12.4878H63.9541V0.441146H72.6696V2.4772H66.2307V5.15801ZM69.1698 7.09226H66.2307V10.4687H69.1698C70.6082 10.4687 71.3274 9.9088 71.3274 8.78897C71.3274 8.26865 71.1406 7.85578 70.7668 7.55037C70.4044 7.24496 69.872 7.09226 69.1698 7.09226Z" fill="var(--fill-0, #030306)" fill-opacity="0.88"/>
<path d="M75.8597 12.4878V3.90244H77.9833V9.45069L81.704 3.90244H83.8446V12.4878H81.704V6.90562L77.9833 12.4878H75.8597Z" fill="var(--fill-0, #030306)" fill-opacity="0.88"/>
<path d="M89.7762 10.9947C90.9088 10.9947 91.4751 10.6214 91.4751 9.87487C91.4751 9.25274 91.0561 8.94168 90.2179 8.94168H88.8588V7.36373H90.15C90.9315 7.36373 91.3222 7.04136 91.3222 6.39661C91.3222 5.72923 90.8579 5.39555 89.9291 5.39555C89.0004 5.39555 88.3605 5.77448 88.0093 6.53234H85.8857C86.0103 5.75186 86.4237 5.08448 87.1259 4.53022C87.8281 3.96465 88.7625 3.68187 89.9291 3.68187C91.0617 3.68187 91.9338 3.90809 92.5455 4.36055C93.1571 4.81301 93.4629 5.44645 93.4629 6.26087C93.4629 6.72464 93.3326 7.12054 93.0721 7.44857C92.8116 7.76529 92.5058 7.97455 92.1547 8.07635C92.5964 8.18947 92.9589 8.40438 93.242 8.7211C93.5365 9.02651 93.6837 9.42807 93.6837 9.92577C93.6837 10.7854 93.3326 11.4641 92.6304 11.9618C91.9395 12.4595 90.9881 12.7084 89.7762 12.7084C88.5417 12.7084 87.5733 12.4143 86.8711 11.8261C86.1802 11.2266 85.7951 10.5196 85.7158 9.7052H87.7885C87.9131 10.0672 88.1396 10.3726 88.4681 10.6214C88.8078 10.8703 89.2439 10.9947 89.7762 10.9947Z" fill="var(--fill-0, #030306)" fill-opacity="0.88"/>
<path d="M95.7025 12.4878V3.90244H97.8601V7.1771H101.36V3.90244H103.518V12.4878H101.36V9.02651H97.8601V12.4878H95.7025Z" fill="var(--fill-0, #030306)" fill-opacity="0.88"/>
<path d="M106.667 4.93743C107.414 4.10039 108.405 3.68187 109.64 3.68187C110.875 3.68187 111.86 4.09473 112.596 4.92047C113.332 5.73489 113.7 6.82079 113.7 8.17816V8.53447H107.703C107.737 9.23577 107.941 9.807 108.315 10.2481C108.689 10.678 109.187 10.8929 109.81 10.8929C110.557 10.8929 111.135 10.6158 111.543 10.0615H113.649C113.615 10.3217 113.525 10.5875 113.378 10.859C113.23 11.1304 113.015 11.4132 112.732 11.7073C112.449 12.0014 112.052 12.2446 111.543 12.4369C111.033 12.6179 110.455 12.7084 109.81 12.7084C108.519 12.7084 107.482 12.2899 106.701 11.4528C105.931 10.6045 105.546 9.51856 105.546 8.19512C105.546 6.84906 105.919 5.76317 106.667 4.93743ZM109.64 5.34464C108.575 5.34464 107.941 5.93284 107.737 7.10923H111.509C111.294 5.93284 110.671 5.34464 109.64 5.34464Z" fill="var(--fill-0, #030306)" fill-opacity="0.88"/>
<path d="M123 6.65111H120.91C120.571 5.9385 120.021 5.58219 119.262 5.58219C118.696 5.58219 118.243 5.83104 117.903 6.32874C117.563 6.81513 117.394 7.43726 117.394 8.19512C117.394 8.95299 117.563 9.58077 117.903 10.0785C118.254 10.5649 118.713 10.8081 119.279 10.8081C120.027 10.8081 120.576 10.4518 120.927 9.73913H123C122.977 9.99929 122.892 10.2821 122.745 10.5875C122.609 10.8929 122.405 11.2153 122.134 11.5546C121.862 11.8826 121.471 12.1598 120.961 12.386C120.463 12.6009 119.885 12.7084 119.228 12.7084C118.062 12.7084 117.093 12.2899 116.323 11.4528C115.564 10.6045 115.185 9.51856 115.185 8.19512C115.185 6.87169 115.564 5.79145 116.323 4.9544C117.082 4.10604 118.045 3.68187 119.211 3.68187C119.857 3.68187 120.435 3.78933 120.944 4.00424C121.454 4.21916 121.845 4.49063 122.117 4.81866C122.388 5.1467 122.598 5.46907 122.745 5.78579C122.892 6.0912 122.977 6.37964 123 6.65111Z" fill="var(--fill-0, #030306)" fill-opacity="0.88"/>
</g>
</svg>
